<?xml version="1.0" encoding="UTF-8" standalone="no"?>
<!-- Generator: Adobe Illustrator 19.0.0, SVG Export Plug-In . SVG Version: 6.00 Build 0)  -->

<svg
   xmlns:dc="http://purl.org/dc/elements/1.1/"
   xmlns:cc="http://creativecommons.org/ns#"
   xmlns:rdf="http://www.w3.org/1999/02/22-rdf-syntax-ns#"
   xmlns:svg="http://www.w3.org/2000/svg"
   xmlns="http://www.w3.org/2000/svg"
   xmlns:sodipodi="http://sodipodi.sourceforge.net/DTD/sodipodi-0.dtd"
   xmlns:inkscape="http://www.inkscape.org/namespaces/inkscape"
   version="1.1"
   id="Capa_1"
   x="0px"
   y="0px"
   viewBox="0 0 512 512"
   style="enable-background:new 0 0 512 512;"
   xml:space="preserve"
   sodipodi:docname="love_gray.svg"
   inkscape:version="0.92.3 (2405546, 2018-03-11)"><metadata
   id="metadata106"><rdf:RDF><cc:Work
       rdf:about=""><dc:format>image/svg+xml</dc:format><dc:type
         rdf:resource="http://purl.org/dc/dcmitype/StillImage" /></cc:Work></rdf:RDF></metadata><defs
   id="defs104" /><sodipodi:namedview
   pagecolor="#ffffff"
   bordercolor="#666666"
   borderopacity="1"
   objecttolerance="10"
   gridtolerance="10"
   guidetolerance="10"
   inkscape:pageopacity="0"
   inkscape:pageshadow="2"
   inkscape:window-width="1920"
   inkscape:window-height="1051"
   id="namedview102"
   showgrid="false"
   inkscape:zoom="1.6757812"
   inkscape:cx="256"
   inkscape:cy="327.60839"
   inkscape:window-x="2391"
   inkscape:window-y="-9"
   inkscape:window-maximized="1"
   inkscape:current-layer="Capa_1" />
<g
   id="g63">
	<g
   id="g61">
		<path
   d="M407.815,0h-303.63c-21.38,0-41.736,6.707-58.87,19.394c-3.341,2.474-4.044,7.188-1.57,10.529s7.188,4.042,10.529,1.57    c14.522-10.754,31.781-16.439,49.911-16.439h303.629c46.296,0,83.96,37.665,83.96,83.96v199.144    c0,46.296-37.665,83.96-83.96,83.96H279.48c-3.101,0-6.097,1.296-8.217,3.553l-103.068,109.59    c-2.225,2.364-4.805,1.693-5.81,1.296c-1.006-0.398-3.345-1.676-3.345-4.924V393.4c0-6.22-5.06-11.28-11.28-11.28h-43.575    c-46.296,0-83.961-37.665-83.961-83.96V99.014c0-17.032,5.069-33.429,14.66-47.417c2.35-3.429,1.477-8.113-1.951-10.464    c-3.427-2.351-8.114-1.476-10.464,1.951C11.153,59.59,5.171,78.93,5.171,99.014v199.144c0,54.596,44.418,99.014,99.015,99.014    h39.801v94.461c0,8.398,5.044,15.824,12.851,18.918c2.461,0.975,5.017,1.449,7.543,1.449c5.489,0,10.84-2.237,14.78-6.425    l101.95-108.402h126.704c54.596,0,99.014-44.418,99.014-99.014V99.014C506.829,44.418,462.412,0,407.815,0z"
   id="path59" />
	</g>
</g>
<g
   id="g69">
	<g
   id="g67">
		<path
   d="M364.119,120.935c-26.124-26.125-68.635-26.123-94.761,0l-13.119,13.12c-0.035,0.035-0.143,0.143-0.344,0.143    c-0.2,0-0.307-0.106-0.342-0.143l-12.911-12.91c-26.125-26.125-68.635-26.124-94.76,0c-26.125,26.125-26.125,68.636,0,94.761    l97.035,97.035c2.935,2.935,6.837,4.551,10.987,4.551s8.053-1.617,10.987-4.552l53.325-53.334c2.94-2.94,2.94-7.706-0.001-10.644    c-2.94-2.939-7.707-2.94-10.644,0.001l-53.325,53.334c-0.035,0.035-0.143,0.141-0.342,0.141c-0.201,0-0.308-0.106-0.343-0.143    l-97.035-97.035c-20.256-20.257-20.256-53.215,0-73.472s53.215-20.255,73.471,0l12.91,12.91c2.935,2.935,6.837,4.552,10.987,4.552    c4.151,0,8.052-1.616,10.988-4.551l13.12-13.12c20.26-20.255,53.216-20.255,73.472,0c20.256,20.256,20.256,53.214,0,73.472    l-22.472,22.477c-2.94,2.94-2.94,7.706,0.001,10.644c2.94,2.939,7.706,2.94,10.644-0.001l22.473-22.476    C390.244,189.57,390.244,147.06,364.119,120.935z"
   id="path65" />
	</g>
</g>
<g
   id="g71">
</g>
<g
   id="g73">
</g>
<g
   id="g75">
</g>
<g
   id="g77">
</g>
<g
   id="g79">
</g>
<g
   id="g81">
</g>
<g
   id="g83">
</g>
<g
   id="g85">
</g>
<g
   id="g87">
</g>
<g
   id="g89">
</g>
<g
   id="g91">
</g>
<g
   id="g93">
</g>
<g
   id="g95">
</g>
<g
   id="g97">
</g>
<g
   id="g99">
</g>
<path
   style="fill:#ff7f2a;stroke-width:0.59673661"
   d="m 158.32275,510.68953 c -4.3789,-1.56477 -7.6173,-3.87053 -10.03119,-7.14226 -4.0137,-5.44008 -3.8813,-3.47758 -3.8813,-57.5353 v -48.82409 l -18.64802,-0.0128 C 103.74611,397.16001 92.558835,396.53044 84.549412,394.85575 48.659668,387.35158 19.67993,360.7459 9.5490665,325.99954 5.4695018,312.00764 5.7619632,320.93733 5.5190042,202.95012 5.3634458,127.40693 5.4933221,94.212481 5.9626134,89.570163 7.197336,77.356057 9.816141,67.918906 14.987497,57.048019 c 4.071719,-8.559303 8.02208,-14.751686 10.094266,-15.823255 3.682452,-1.90427 8.08496,-0.67432 9.857828,2.754031 1.47947,2.860979 1.060822,5.132759 -1.788641,9.706003 -5.952448,9.553378 -9.885099,19.824271 -12.140848,31.708209 -0.937744,4.940299 -1.019426,13.977188 -1.019426,112.783213 0,101.27359 0.06221,107.7707 1.088545,113.67833 5.289219,30.44508 26.228729,55.42405 55.004695,65.6157 11.955934,4.23446 13.045623,4.34839 45.351984,4.74165 25.69731,0.31281 29.457,0.47601 31.0303,1.34694 2.36567,1.30958 4.84403,3.97652 5.63103,6.05949 0.43029,1.13885 0.6347,18.01287 0.6347,52.39328 0,43.64704 0.12328,50.95178 0.88473,52.42427 1.09253,2.11271 4.22011,3.30215 6.45181,2.45365 0.84759,-0.32225 20.93322,-21.20863 44.63472,-46.41418 57.49997,-61.14878 61.85977,-65.70364 64.02488,-66.8893 1.71377,-0.93849 7.46592,-1.04384 73.46773,-1.34546 70.38861,-0.32167 71.69988,-0.34888 76.97903,-1.59773 16.93466,-4.00609 30.54799,-11.47194 42.10028,-23.08873 12.2922,-12.36084 20.2078,-27.48348 23.60805,-45.10285 1.02939,-5.33409 1.10577,-11.69728 1.29302,-107.71095 C 492.38737,96.442832 492.25889,90.030301 489.66531,79.425641 481.79913,47.262263 457.2898,23.676335 424.09378,16.324555 l -6.07979,-1.346466 H 256 93.986014 l -6.029462,1.336209 C 75.98086,18.968271 68.312603,22.126895 57.88345,28.701682 52.170402,32.303324 51.390732,32.628444 49.044429,32.38753 45.944224,32.069205 43.806712,30.255772 42.878006,27.156028 41.841244,23.695625 43.464607,21.03745 48.932401,17.242264 58.83775,10.366977 74.062357,4.1503349 86.825175,1.7695616 92.556657,0.70041176 99.255723,0.65641026 256.29837,0.65641026 c 154.4848,0 163.79385,0.058667 168.72625,1.06333894 20.59742,4.1954495 37.05702,12.7245418 51.38597,26.6273628 17.11854,16.609458 27.27345,37.741036 29.65994,61.720025 0.39125,3.931176 0.53107,43.672053 0.39717,112.882983 -0.22829,117.99659 0.0636,109.05477 -4.01677,123.04942 -10.13086,34.74636 -39.1106,61.35204 -75.00034,68.85621 -9.69485,2.0271 -19.87753,2.30604 -84.66802,2.31936 l -62.1032,0.0128 -49.48654,52.62459 c -27.2176,28.94353 -50.75671,53.92937 -52.30915,55.52408 -5.41615,5.56365 -13.8366,7.75589 -20.56093,5.35298 z"
   id="path3811"
   inkscape:connector-curvature="0" /><path
   style="fill:#ff7f2a;stroke-width:0.59673661"
   d="m 156.96232,509.85033 c -3.80007,-1.45883 -9.09431,-6.39063 -10.58463,-9.86002 -1.39482,-3.24708 -1.87804,-19.46864 -1.92663,-64.67647 l -0.0408,-37.95795 -21.33334,-0.40126 C 97.82022,396.47956 89.677683,395.83662 80.857809,393.62094 52.352739,386.46005 29.153997,367.85882 16.027891,341.63899 12.268908,334.1303 8.065232,321.42491 7.0482138,314.49839 6.4246377,310.25146 6.2657343,286.62913 6.2657343,198.17622 c 0,-105.889139 0.051305,-111.267407 1.1157206,-116.960369 1.5642915,-8.366522 4.5939211,-17.289429 8.7123281,-25.659674 4.672652,-9.49669 7.772865,-13.801668 10.476896,-14.548287 4.613709,-1.273906 8.645178,1.588525 8.626871,6.125266 -0.0077,1.896155 -0.825385,3.883249 -3.589046,8.721389 -4.859458,8.507101 -8.391649,17.950673 -10.825109,28.941725 -0.64329,2.905499 -0.792719,24.27794 -0.792719,113.37995 0,103.50313 0.06178,110.1032 1.077395,115.09498 6.257071,30.75376 27.273058,55.00231 56.209318,64.85514 9.760481,3.32346 11.672276,3.516 41.174821,4.1469 15.09744,0.32284 28.9256,0.75016 30.72924,0.94959 2.90378,0.32106 3.60431,0.68754 6.11655,3.19978 l 2.8372,2.8372 0.0755,9.78221 c 0.73029,94.59218 0.74547,95.30803 2.04873,96.61058 0.67603,0.67567 2.26022,1.39581 3.52042,1.60031 l 2.29128,0.37182 7.41007,-7.70094 c 8.80403,-9.14963 38.28984,-40.22634 71.85961,-75.73678 30.73917,-32.5162 28.30086,-30.21078 32.56399,-30.7893 1.90106,-0.25798 32.05507,-0.63914 67.00892,-0.84702 34.95385,-0.20788 67.17764,-0.60508 71.6084,-0.88265 27.22855,-1.70584 53.30033,-19.54706 66.46266,-45.48117 3.26303,-6.42925 6.13091,-14.40842 7.88761,-21.94538 0.9666,-4.14711 1.06029,-12.00712 1.27671,-107.11422 C 492.39976,96.985648 492.25004,89.322864 489.63895,78.651912 482.18258,48.179364 459.45119,25.69221 426.96503,16.651395 L 420.99767,14.990692 257.65853,14.8299 C 95.326296,14.670098 94.285259,14.676589 88.782077,15.882736 77.572965,18.339468 67.384171,22.369361 59.262514,27.558371 51.492553,32.522682 48.444414,33.131892 45.324551,30.344056 42.654736,27.958372 42.257453,24.372741 44.357829,21.619007 49.048358,15.469406 70.018924,5.6000032 85.333333,2.3346571 90.161475,1.3051986 98.404168,1.2531469 256.59674,1.2531469 h 166.19114 l 5.669,1.4212365 c 20.168,5.0561853 36.15585,14.0550186 49.56425,27.8974626 13.98284,14.435487 22.07075,29.637564 26.30899,49.450532 l 1.40415,6.564102 v 111.29138 c 0,88.69903 -0.15885,112.3732 -0.78248,116.62053 -1.64249,11.18637 -8.1724,27.42236 -15.3514,38.1698 -16.51148,24.71876 -43.88712,40.941 -73.03359,43.27818 -4.44484,0.35642 -36.17034,0.81196 -72.17304,1.03631 l -64.24185,0.40033 -51.30103,54.51641 c -28.21557,29.98402 -52.26782,55.15619 -53.44945,55.93816 -5.25868,3.48003 -12.54516,4.2754 -18.43911,2.01275 z"
   id="path3813"
   inkscape:connector-curvature="0" /><path
   style="fill:#ff9955;stroke-width:0.59673661"
   d="m 251.15752,316.40191 c -1.18643,-0.42399 -2.93189,-1.33366 -3.87878,-2.0215 -3.88903,-2.82504 -104.02354,-103.85967 -106.59332,-107.55151 -8.05909,-11.57794 -11.9417,-24.23082 -11.9023,-38.78787 0.0491,-18.13051 6.49176,-33.45345 19.63978,-46.71016 22.99438,-23.184452 59.3995,-25.926784 86.39295,-6.50782 1.64103,1.18055 7.07929,6.1679 12.08503,11.083 l 9.10134,8.93655 9.69586,-9.55517 c 10.54371,-10.39072 14.37839,-13.29349 22.88376,-17.32252 8.36893,-3.9644 15.53992,-5.64428 25.59998,-5.99705 9.95954,-0.34925 16.48268,0.60249 25.00402,3.64813 41.0215,14.66165 57.09762,64.36201 32.49277,100.45354 -4.22755,6.20118 -30.3369,32.69089 -33.13006,33.61271 -1.09628,0.36181 -2.77832,0.4854 -3.73787,0.27465 -3.64207,-0.79994 -6.33604,-5.29482 -5.33152,-8.89562 0.30569,-1.09573 5.45508,-6.75941 14.10632,-15.51515 14.68071,-14.85805 18.47095,-19.74195 21.57316,-27.7981 10.448,-27.1324 -2.30438,-57.07129 -28.87257,-67.78445 -14.86367,-5.99352 -31.43311,-4.84622 -45.65911,3.16152 -4.12173,2.3201 -7.04892,4.78695 -15.84078,13.34963 -9.4136,9.1682 -11.19,10.63822 -13.97198,11.56224 -3.84108,1.27581 -8.35898,0.97287 -11.74971,-0.78784 -1.27265,-0.66086 -5.53628,-4.47276 -9.47475,-8.47089 -3.93846,-3.99814 -9.14532,-8.86693 -11.5708,-10.81954 -21.10192,-16.98792 -51.62475,-15.08159 -70.26579,4.38851 -18.05018,18.85296 -19.5329,47.90886 -3.49414,68.47246 1.42589,1.82816 24.90069,25.61119 52.16623,52.85119 l 49.5737,49.52726 27.5996,-27.56964 c 15.17978,-15.16331 28.33794,-27.84389 29.24036,-28.17907 2.32244,-0.86259 5.01191,-0.16039 6.99994,1.82763 2.06492,2.06492 2.71471,4.61441 1.84653,7.24501 -0.45318,1.37315 -9.16015,10.44458 -29.13787,30.35755 -25.63498,25.55189 -28.7864,28.49678 -31.43236,29.37239 -3.49363,1.15614 -6.99444,1.20885 -9.95762,0.14993 z"
   id="path3815"
   inkscape:connector-curvature="0" /><path
   style="fill:#ff9955;stroke-width:0.59673661"
   d="m 157.12194,509.90987 c -3.95671,-1.52116 -8.65308,-5.735 -10.38955,-9.32207 -1.1894,-2.45697 -1.40513,-4.12392 -1.79384,-13.86096 -0.24302,-6.08745 -0.4613,-28.72404 -0.48508,-50.30353 l -0.0432,-39.23543 -9.10024,-0.023 C 117.62217,397.12027 92.843484,396.06066 87.421911,395.11703 74.300652,392.83327 58.133671,386.07467 47.440559,378.40284 29.152863,365.28225 16.871015,348.1955 9.8970666,326.17159 6.089264,314.14646 6.2657343,320.36659 6.2657343,198.17622 c 0,-124.726765 -0.2980111,-115.63041 4.2325837,-129.193469 2.5422,-7.610487 8.192154,-19.356878 11.544407,-24.001109 2.959186,-4.099675 5.750691,-5.262725 9.186137,-3.827304 5.159922,2.155953 5.283097,5.970911 0.472835,14.64453 -4.052949,7.308068 -7.108215,14.710949 -9.385397,22.740733 -1.497454,5.280313 -1.631675,6.740587 -2.00116,21.771819 -0.58156,23.65872 -0.63332,175.59999 -0.06658,195.43124 0.448665,15.69947 0.608811,17.46362 2.083037,22.94645 6.536559,24.31023 22.317019,43.81153 44.416808,54.88973 6.518804,3.26776 16.05524,6.57084 21.568608,7.4706 2.133334,0.34815 16.634037,0.92068 32.223777,1.27228 15.58975,0.3516 29.31918,0.888 30.50986,1.19199 1.35687,0.34642 3.08297,1.54873 4.62471,3.22132 l 2.45984,2.6686 0.0576,7.32337 c 0.59775,76.02513 0.93421,96.94587 1.57761,98.09465 0.98227,1.75383 4.07429,2.95217 5.84672,2.26597 1.52025,-0.58858 12.00702,-11.36185 43.53231,-44.72161 48.5186,-51.34193 59.98514,-63.39644 62.78961,-66.00933 2.85802,-2.66278 3.15769,-2.78961 7.39399,-3.12955 2.42837,-0.19486 35.16208,-0.61496 72.74157,-0.93355 74.34132,-0.63024 71.33155,-0.478 82.33505,-4.16451 28.4309,-9.52523 49.56054,-33.4114 56.25086,-63.58921 1.15644,-5.21634 1.19904,-8.21658 1.48309,-104.43423 0.3103,-105.1129 0.0444,-120.875792 -2.19474,-130.083252 -7.83474,-32.217452 -31.56973,-55.522396 -64.77191,-63.5983 l -7.23252,-1.759197 -163.17268,0.156604 -163.172675,0.156604 -6.86922,1.862428 C 73.781623,19.808874 69.516251,21.676054 56.406058,29.23935 50.329092,32.745163 47.933405,32.895643 44.993939,29.956177 42.424426,27.386664 42.231832,24.406332 44.447575,21.501344 49.094548,15.408848 71.568917,4.9592072 86.228438,2.0749899 89.71526,1.3889686 117.92046,1.2531469 256.8951,1.2531469 h 166.48952 l 6.05243,1.6351758 c 19.70874,5.3246818 32.95381,12.6074133 46.30876,25.4626143 13.21416,12.719685 21.97346,27.155556 26.70784,44.016175 3.82269,13.61383 3.67231,7.903102 3.4089,129.454058 -0.2662,122.83829 0.0913,112.84377 -4.53036,126.66667 -11.18823,33.46302 -37.76792,57.6172 -72.27858,65.68283 -8.84812,2.06793 -18.86591,2.40182 -84.61729,2.82021 l -64.26849,0.40897 -17.9021,19.05001 c -67.5618,71.89397 -83.50394,88.69839 -85.96851,90.61835 -5.25951,4.0973 -12.94626,5.23642 -19.17528,2.84166 z"
   id="path3817"
   inkscape:connector-curvature="0" /><path
   style="fill:#ff9955;stroke-width:0.59673661"
   d="m 249.61609,315.38748 c -1.7171,-0.84996 -18.26992,-17.07843 -52.62123,-51.59013 -27.56385,-27.69255 -51.90248,-52.44342 -54.08583,-55.00193 -10.02344,-11.74573 -15.26942,-30.13235 -13.47818,-47.23968 1.67532,-16.00023 7.47709,-27.90219 19.40203,-39.80202 6.86886,-6.85439 12.52386,-10.80442 20.21508,-14.12029 9.45591,-4.07666 14.08332,-4.93544 26.38328,-4.89634 9.67191,0.0308 11.32211,0.19088 16.57576,1.60851 6.7018,1.80838 15.29311,5.70688 20.76411,9.42217 2.07698,1.41044 8.15347,6.85306 13.50333,12.09471 l 9.72702,9.53027 9.99461,-9.79404 c 10.77467,-10.55845 15.75552,-14.27758 23.98443,-17.90886 8.44569,-3.72695 13.34718,-4.77207 24.06889,-5.13206 13.7927,-0.4631 21.69394,1.18041 32.96949,6.85786 27.88669,14.04148 42.16514,47.15438 33.38329,77.41857 -3.6755,12.66661 -8.06432,19.22084 -23.40641,34.95496 -14.15023,14.51179 -17.99815,17.86024 -20.52441,17.86024 -2.52362,0 -4.96884,-1.59592 -6.10919,-3.98726 -1.92029,-4.02689 -2.36301,-3.39524 15.6001,-22.25777 6.64847,-6.98137 13.33473,-14.56856 14.85835,-16.86041 5.84414,-8.79084 8.288,-18.36501 7.79627,-30.54296 -0.35862,-8.88109 -1.59692,-14.05022 -4.98943,-20.82754 -5.66064,-11.30843 -13.60845,-19.05905 -24.87602,-24.25879 -8.01019,-3.69653 -11.94768,-4.49245 -22.18267,-4.48395 -10.08645,0.008 -14.90027,1.02094 -22.7416,4.78361 -5.73837,2.75356 -8.58993,5.00067 -19.94896,15.72038 -5.48079,5.17231 -10.78382,9.65634 -12.15834,10.2806 -2.92931,1.3304 -8.50941,1.47985 -11.32522,0.30333 -1.09263,-0.45653 -5.9847,-4.65144 -10.87127,-9.32201 -10.70787,-10.23457 -15.11452,-13.67521 -21.44836,-16.74652 -18.13295,-8.79276 -39.80216,-6.37241 -55.41222,6.18929 -20.14393,16.21019 -25.47785,44.449 -12.7035,67.25475 2.17033,3.87464 6.32642,8.36126 30.95538,33.41725 15.64666,15.91795 38.93009,39.40149 51.74095,52.18564 l 23.29248,23.24392 28.33878,-28.16699 c 25.17286,-25.02026 28.54569,-28.167 30.19079,-28.167 4.00248,0 7.16336,3.14893 7.16336,7.13629 0,2.52324 -4.37138,7.24958 -33.19984,35.89572 -15.02836,14.93332 -24.71369,24.10784 -26.30087,24.91375 -3.40328,1.72807 -9.07155,1.74378 -12.52423,0.0347 z"
   id="path3819"
   inkscape:connector-curvature="0" /></svg>